<?xml version="1.0" standalone="no"?>
<!DOCTYPE svg PUBLIC "-//W3C//DTD SVG 20010904//EN"
 "http://www.w3.org/TR/2001/REC-SVG-20010904/DTD/svg10.dtd">
<svg version="1.0" xmlns="http://www.w3.org/2000/svg"
 width="300.000000pt" height="300.000000pt" viewBox="0 0 300.000000 300.000000"
 preserveAspectRatio="xMidYMid meet">
<metadata>
Created by potrace 1.14, written by Peter Selinger 2001-2017
</metadata>
<g transform="translate(0.000000,300.000000) scale(0.100000,-0.100000)"
fill="#000000" stroke="none">
<path d="M2075 2985 c-47 -20 -66 -50 -160 -237 l-88 -175 -306 -2 c-168 -1
-326 -2 -350 -4 l-43 -2 -42 95 c-135 302 -154 329 -241 330 -63 0 -107 -29
-128 -84 -16 -46 -16 -49 2 -107 17 -51 40 -101 107 -233 8 -16 11 -32 7 -36
-4 -4 -57 -17 -118 -30 -60 -13 -114 -27 -120 -32 -5 -4 -15 -8 -23 -8 -25 0
-184 -81 -231 -117 -108 -85 -172 -187 -202 -320 -11 -49 -24 -108 -29 -133
-35 -158 -52 -552 -37 -826 13 -221 59 -501 98 -589 27 -61 79 -137 133 -194
53 -56 161 -126 209 -135 20 -4 37 -10 37 -15 0 -4 26 -14 57 -21 32 -7 63
-16 68 -21 11 -8 149 -34 355 -67 87 -14 180 -17 540 -17 239 0 444 4 455 9
11 5 40 11 65 13 25 2 101 13 170 24 479 80 633 228 702 673 17 111 20 191 22
526 2 217 -1 429 -5 470 -11 91 -38 259 -46 280 -3 8 -15 42 -27 76 -65 186
-217 326 -416 381 -120 33 -304 72 -342 73 -26 0 -40 23 -20 32 4 2 34 57 67
123 75 153 82 205 37 257 -18 19 -48 40 -70 46 -47 14 -48 14 -87 -3z m-147
-500 c81 -8 208 -26 282 -40 297 -55 423 -106 515 -208 55 -61 135 -205 135
-244 0 -12 6 -50 14 -85 78 -344 47 -1246 -50 -1441 -75 -151 -159 -229 -298
-277 -359 -123 -1065 -161 -1571 -84 -144 22 -400 91 -467 126 -132 69 -236
204 -277 358 -57 217 -87 721 -61 1019 25 276 43 373 93 498 26 67 126 175
202 219 149 86 513 162 860 178 138 6 470 -4 623 -19z"/>
<path d="M650 1867 c-54 -27 -32 -96 44 -134 81 -41 268 -168 308 -210 l38
-39 -58 -51 c-71 -62 -225 -167 -278 -189 -38 -16 -48 -25 -81 -73 -16 -23
-16 -24 11 -47 48 -42 85 -33 221 54 131 83 164 109 245 185 78 75 80 78 80
125 0 45 -3 51 -57 103 -67 65 -173 147 -241 185 -26 15 -54 33 -62 40 -26 21
-112 64 -129 64 -9 0 -27 -6 -41 -13z"/>
<path d="M2325 1872 c-28 -6 -276 -159 -295 -181 -3 -4 -36 -31 -73 -61 -78
-62 -107 -103 -107 -151 0 -30 11 -44 82 -113 78 -74 251 -197 345 -245 23
-11 55 -21 71 -21 38 0 83 35 75 58 -11 31 -57 73 -101 92 -57 26 -217 137
-278 193 l-48 46 48 43 c67 59 217 160 309 208 38 20 50 33 59 63 9 31 9 40
-3 51 -17 16 -57 25 -84 18z"/>
<path d="M1510 890 c-8 -5 -24 -28 -35 -52 -22 -47 -86 -88 -135 -88 -40 1
-93 32 -117 70 -44 70 -48 73 -70 66 -29 -9 -34 -38 -13 -83 31 -68 78 -103
162 -122 58 -13 138 7 189 48 l37 31 51 -34 c123 -83 269 -59 326 55 28 54 31
79 13 97 -23 23 -44 12 -70 -35 -65 -122 -171 -124 -264 -4 -50 65 -51 66 -74
51z"/>
</g>
</svg>
